<svg xmlns="http://www.w3.org/2000/svg" width="1500" height="940" viewBox="0 0 1500 940" role="img" aria-labelledby="title desc"><title id="title">Platform state authority</title><desc id="desc">Strategy is the cross-context business identity governed by Research, ValidationRun, Evaluation, Portfolio, and MarketDataset aggregate roots.</desc><defs><marker id="a" viewBox="0 0 10 10" refX="9" refY="5" markerWidth="7" markerHeight="7" orient="auto-start-reverse"><path d="M0 0L10 5L0 10z" fill="#64748b"/></marker><style>.t{font-family:Inter,system-ui,sans-serif;fill:#0f172a}.h{font-size:30px;font-weight:700}.l{font-size:20px;font-weight:700}.d{font-size:14px;fill:#475569}.e{fill:none;stroke:#64748b;stroke-width:2.4;marker-start:url(#a);marker-end:url(#a)}</style></defs><rect width="1500" height="940" rx="24" fill="#f8fafc"/><text x="750" y="56" text-anchor="middle" class="t h">Platform State Authority</text>
<path class="e" d="M750 365V230"/><path class="e" d="M590 410L370 245"/><path class="e" d="M910 410L1130 245"/><path class="e" d="M590 535L370 700"/><path class="e" d="M910 535L1130 700"/>
<rect x="520" y="365" width="460" height="190" rx="30" fill="#0f172a"/><text x="750" y="442" text-anchor="middle" class="t h" style="fill:#fff">Strategy</text><text x="750" y="482" text-anchor="middle" class="t l" style="fill:#cbd5e1">Cross-context business identity</text>
<rect x="520" y="100" width="460" height="130" rx="18" fill="#fef3c7" stroke="#f59e0b" stroke-width="2"/><text x="750" y="151" text-anchor="middle" class="t l">Evaluation</text><text x="750" y="185" text-anchor="middle" class="t d">Governance aggregate root · transition authority</text>
<rect x="70" y="145" width="430" height="140" rx="18" fill="#eff6ff" stroke="#2563eb" stroke-width="2"/><text x="285" y="199" text-anchor="middle" class="t l">Research</text><text x="285" y="234" text-anchor="middle" class="t d">Research aggregate root · experiments &amp; synthesis</text>
<rect x="1000" y="145" width="430" height="140" rx="18" fill="#ecfdf5" stroke="#10b981" stroke-width="2"/><text x="1215" y="199" text-anchor="middle" class="t l">ValidationRun</text><text x="1215" y="234" text-anchor="middle" class="t d">Validation aggregate root · evidence outcome</text>
<rect x="70" y="655" width="430" height="140" rx="18" fill="#f5f3ff" stroke="#8b5cf6" stroke-width="2"/><text x="285" y="709" text-anchor="middle" class="t l">MarketDataset</text><text x="285" y="744" text-anchor="middle" class="t d">Market Intelligence aggregate root · data fitness</text>
<rect x="1000" y="655" width="430" height="140" rx="18" fill="#ecfeff" stroke="#06b6d4" stroke-width="2"/><text x="1215" y="709" text-anchor="middle" class="t l">Portfolio</text><text x="1215" y="744" text-anchor="middle" class="t d">Portfolio aggregate root · eligibility &amp; use</text>
<text x="750" y="875" text-anchor="middle" class="t d">Each aggregate validates its own transition. No context advances Strategy unilaterally.</text></svg>
