<svg xmlns="http://www.w3.org/2000/svg" width="1600" height="760" viewBox="0 0 1600 760" role="img" aria-labelledby="title desc"><title id="title">Research state machine</title><desc id="desc">Research transitions through Draft, Planning, Running, Synthesizing, Reviewed, Closed, and Reopened.</desc><defs><marker id="a" viewBox="0 0 10 10" refX="9" refY="5" markerWidth="7" markerHeight="7" orient="auto"><path d="M0 0L10 5L0 10z" fill="#64748b"/></marker><style>.t{font-family:Inter,system-ui,sans-serif;fill:#0f172a}.h{font-size:30px;font-weight:700}.l{font-size:17px;font-weight:700}.n{font-size:13px;font-weight:600;fill:#64748b}.e{fill:none;stroke:#64748b;stroke-width:2.3;marker-end:url(#a)}.r{fill:none;stroke:#2563eb;stroke-width:2;stroke-dasharray:8 7;marker-end:url(#a)}</style></defs><rect width="1600" height="760" rx="24" fill="#f8fafc"/><text x="800" y="54" text-anchor="middle" class="t h">Research State Machine</text><rect x="55" y="90" width="1490" height="610" rx="26" fill="#fff" stroke="#2563eb" stroke-width="3"/><text x="95" y="140" class="t h">Research Aggregate</text>
<circle cx="100" cy="280" r="13" fill="#0f172a"/><path class="e" d="M113 280H165"/><g fill="#eff6ff" stroke="#2563eb" stroke-width="2"><rect x="165" y="235" width="150" height="90" rx="45"/><rect x="365" y="235" width="165" height="90" rx="45"/><rect x="580" y="235" width="165" height="90" rx="45"/><rect x="795" y="235" width="185" height="90" rx="45"/><rect x="1030" y="235" width="165" height="90" rx="45"/><rect x="1245" y="235" width="165" height="90" rx="45"/></g><text x="240" y="287" text-anchor="middle" class="t l">Draft</text><text x="447" y="287" text-anchor="middle" class="t l">Planning</text><text x="662" y="287" text-anchor="middle" class="t l">Running</text><text x="887" y="287" text-anchor="middle" class="t l">Synthesizing</text><text x="1112" y="287" text-anchor="middle" class="t l">Reviewed</text><text x="1327" y="287" text-anchor="middle" class="t l">Closed</text><path class="e" d="M315 280H365"/><path class="e" d="M530 280H580"/><path class="e" d="M745 280H795"/><path class="e" d="M980 280H1030"/><path class="e" d="M1195 280H1245"/>
<rect x="1020" y="485" width="185" height="90" rx="45" fill="#f5f3ff" stroke="#8b5cf6" stroke-width="2"/><text x="1112" y="537" text-anchor="middle" class="t l">Reopened</text><path class="e" d="M1327 325V430H1112V485"/><path class="r" d="M1020 530H447V325"/><text x="730" y="554" text-anchor="middle" class="t n">ResearchReplanningStarted</text><path class="r" d="M795 305V410H662V325"/><text x="727" y="433" text-anchor="middle" class="t n">AdditionalExperimentRequired</text><path class="r" d="M1030 255V180H887V235"/><text x="960" y="168" text-anchor="middle" class="t n">ReviewChangesRequested</text><circle cx="1485" cy="280" r="15" fill="none" stroke="#0f172a" stroke-width="3"/><circle cx="1485" cy="280" r="8" fill="#0f172a"/><path class="e" d="M1410 280H1470"/></svg>
