<svg xmlns="http://www.w3.org/2000/svg" width="1500" height="1040" viewBox="0 0 1500 1040" role="img" aria-labelledby="title desc">
  <title id="title">Decision flow</title><desc id="desc">Strategy passes through evidence readiness, validation, AI and risk reviews, accountable review and decision; the decision creates obligations that return to Strategy.</desc>
  <defs><marker id="a" viewBox="0 0 10 10" refX="9" refY="5" markerWidth="7" markerHeight="7" orient="auto"><path d="M0 0L10 5L0 10z" fill="#64748b"/></marker><style>.t{font-family:Inter,system-ui,sans-serif;fill:#0f172a}.h{font-size:30px;font-weight:700}.l{font-size:17px;font-weight:700}.n{font-size:13px;font-weight:600;fill:#64748b}.e{fill:none;stroke:#64748b;stroke-width:2.3;marker-end:url(#a)}.r{fill:none;stroke:#2563eb;stroke-width:2;stroke-dasharray:8 7;marker-end:url(#a)}</style></defs>
  <rect width="1500" height="1040" rx="24" fill="#f8fafc"/><text x="750" y="54" text-anchor="middle" class="t h">Decision Flow</text>
  <rect x="590" y="86" width="320" height="86" rx="18" fill="#0f172a"/><text x="750" y="139" text-anchor="middle" class="t h" style="fill:#fff">Strategy</text><path class="e" d="M750 172V218"/>
  <g fill="#ecfdf5" stroke="#10b981" stroke-width="2"><rect x="590" y="218" width="320" height="76" rx="14"/><rect x="590" y="340" width="320" height="76" rx="14"/></g><text x="750" y="264" text-anchor="middle" class="t l">Evidence Readiness</text><text x="750" y="386" text-anchor="middle" class="t l">Validation</text><path class="e" d="M750 294V340"/>
  <g fill="#fef3c7" stroke="#f59e0b" stroke-width="2"><rect x="590" y="462" width="320" height="76" rx="14"/><rect x="590" y="584" width="320" height="76" rx="14"/><rect x="590" y="706" width="320" height="76" rx="14"/><rect x="590" y="828" width="320" height="76" rx="14"/></g><text x="750" y="508" text-anchor="middle" class="t l">AI Review</text><text x="750" y="630" text-anchor="middle" class="t l">Risk Review + Guardrails</text><text x="750" y="752" text-anchor="middle" class="t l">Accountable Review</text><text x="750" y="874" text-anchor="middle" class="t l">Decision</text><path class="e" d="M750 416V462"/><path class="e" d="M750 538V584"/><path class="e" d="M750 660V706"/><path class="e" d="M750 782V828"/>
  <rect x="90" y="340" width="270" height="100" rx="16" fill="#eff6ff" stroke="#2563eb" stroke-width="2"/><text x="225" y="382" text-anchor="middle" class="t l">Research</text><text x="225" y="411" text-anchor="middle" class="t n">insufficient · fail · breach</text><path class="r" d="M590 256H225V340"/><path class="r" d="M590 378H360"/><path class="r" d="M590 622H225V440"/><path class="r" d="M225 340V129H590"/>
  <text x="1050" y="820" class="t l">Decision consequences</text>
  <g fill="#f5f3ff" stroke="#8b5cf6" stroke-width="2"><rect x="1030" y="848" width="190" height="64" rx="12"/><rect x="1260" y="848" width="190" height="64" rx="12"/><rect x="1030" y="940" width="190" height="64" rx="12"/><rect x="1260" y="940" width="190" height="64" rx="12"/></g><text x="1125" y="887" text-anchor="middle" class="t l">Lifecycle State</text><text x="1355" y="887" text-anchor="middle" class="t l">Portfolio Eligibility</text><text x="1125" y="979" text-anchor="middle" class="t l">Monitoring</text><text x="1355" y="979" text-anchor="middle" class="t l">Notebook</text>
  <path class="e" d="M910 866H1030"/><path class="e" d="M910 866H970V880H1260"/><path class="e" d="M910 866H970V972H1030"/><path class="e" d="M910 866H970V1018H1355V1004"/><path class="e" d="M1450 880H1470V129H910"/><path class="e" d="M1220 972H1240V129H910"/>
</svg>
