<svg xmlns="http://www.w3.org/2000/svg" width="1600" height="1080" viewBox="0 0 1600 1080" role="img" aria-labelledby="title desc">
  <title id="title">Entity relationship diagram</title><desc id="desc">Strategy is the central entity related to lifecycle, research, validation, reviews, decisions, monitoring, simulations, portfolios, markets, and notebooks.</desc>
  <defs><marker id="a" viewBox="0 0 10 10" refX="9" refY="5" markerWidth="7" markerHeight="7" orient="auto"><path d="M0 0L10 5L0 10z" fill="#64748b"/></marker><style>.t{font-family:Inter,system-ui,sans-serif;fill:#0f172a}.h{font-size:30px;font-weight:700}.l{font-size:16px;font-weight:700}.c{font-size:13px;font-weight:700;fill:#64748b}.e{fill:none;stroke:#64748b;stroke-width:2;marker-end:url(#a)}.x{fill:#fff;stroke:#94a3b8;stroke-width:1.6}</style></defs>
  <rect width="1600" height="1080" rx="24" fill="#f8fafc"/><text x="800" y="54" text-anchor="middle" class="t h">Entity Relationship Diagram</text>
  <rect x="620" y="455" width="360" height="150" rx="24" fill="#0f172a"/><text x="800" y="522" text-anchor="middle" class="t h" style="fill:#fff">STRATEGY</text><text x="800" y="558" text-anchor="middle" class="t c" style="fill:#cbd5e1">aggregate center · versioned identity</text>
  <g class="x"><rect x="650" y="105" width="300" height="72" rx="12"/><rect x="110" y="190" width="260" height="72" rx="12"/><rect x="110" y="330" width="260" height="72" rx="12"/><rect x="110" y="470" width="260" height="72" rx="12"/><rect x="110" y="610" width="260" height="72" rx="12"/><rect x="110" y="750" width="260" height="72" rx="12"/><rect x="1230" y="190" width="260" height="72" rx="12"/><rect x="1230" y="330" width="260" height="72" rx="12"/><rect x="1230" y="470" width="260" height="72" rx="12"/><rect x="1230" y="610" width="260" height="72" rx="12"/><rect x="1230" y="750" width="260" height="72" rx="12"/></g>
  <text x="800" y="149" text-anchor="middle" class="t l">LIFECYCLE</text><text x="240" y="234" text-anchor="middle" class="t l">RESEARCH</text><text x="240" y="374" text-anchor="middle" class="t l">VALIDATION</text><text x="240" y="514" text-anchor="middle" class="t l">REVIEW</text><text x="240" y="654" text-anchor="middle" class="t l">DECISION</text><text x="240" y="794" text-anchor="middle" class="t l">NOTEBOOK</text><text x="1360" y="234" text-anchor="middle" class="t l">MONITORING</text><text x="1360" y="374" text-anchor="middle" class="t l">SIMULATION</text><text x="1360" y="514" text-anchor="middle" class="t l">PORTFOLIO</text><text x="1360" y="654" text-anchor="middle" class="t l">MARKET</text><text x="1360" y="794" text-anchor="middle" class="t l">EVIDENCE</text>
  <path class="e" d="M800 455V177"/><text x="814" y="305" class="t c">1 : 1</text><path class="e" d="M620 485L370 226"/><text x="470" y="340" class="t c">1 : many</text><path class="e" d="M620 510L370 366"/><path class="e" d="M620 535L370 506"/><path class="e" d="M620 560L370 646"/><path class="e" d="M620 585L370 786"/><path class="e" d="M980 485L1230 226"/><path class="e" d="M980 510L1230 366"/><path class="e" d="M980 535L1230 506"/><path class="e" d="M980 560L1230 646"/><path class="e" d="M980 585L1230 786"/>
  <text x="1075" y="338" class="t c">1 : many</text><text x="1070" y="505" class="t c">many : many</text><text x="1070" y="660" class="t c">many : many</text>
  <g fill="#eff6ff" stroke="#2563eb" stroke-width="1.6"><rect x="420" y="865" width="210" height="64" rx="11"/><rect x="695" y="865" width="210" height="64" rx="11"/><rect x="970" y="865" width="210" height="64" rx="11"/></g><text x="525" y="904" text-anchor="middle" class="t l">HYPOTHESIS</text><text x="800" y="904" text-anchor="middle" class="t l">EXPERIMENT</text><text x="1075" y="904" text-anchor="middle" class="t l">BACKTEST</text>
  <path class="e" d="M240 262V897H420"/><path class="e" d="M630 897H695"/><path class="e" d="M905 897H970"/>
  <g fill="#ecfdf5" stroke="#10b981" stroke-width="1.6"><rect x="515" y="970" width="240" height="62" rx="11"/><rect x="845" y="970" width="240" height="62" rx="11"/></g><text x="635" y="1008" text-anchor="middle" class="t l">DATA CONFIDENCE</text><text x="965" y="1008" text-anchor="middle" class="t l">HEALTH SCORE</text><path class="e" d="M1360 822V1001H755"/><path class="e" d="M1360 262V1001H1085"/>
</svg>
