<svg xmlns="http://www.w3.org/2000/svg" width="1700" height="960" viewBox="0 0 1700 960" role="img" aria-labelledby="title desc">
  <title id="title">Evidence flow</title><desc id="desc">Strategy-linked sources produce evidence, which is qualified, validated, reviewed and used in a decision that returns to Strategy.</desc>
  <defs><marker id="a" viewBox="0 0 10 10" refX="9" refY="5" markerWidth="7" markerHeight="7" orient="auto"><path d="M0 0L10 5L0 10z" fill="#64748b"/></marker><style>.t{font-family:Inter,system-ui,sans-serif;fill:#0f172a}.h{font-size:30px;font-weight:700}.l{font-size:18px;font-weight:700}.d{font-size:14px;fill:#475569}.e{fill:none;stroke:#64748b;stroke-width:2.4;marker-end:url(#a)}</style></defs>
  <rect width="1700" height="960" rx="24" fill="#f8fafc"/><text x="850" y="55" text-anchor="middle" class="t h">Evidence Flow</text>
  <rect x="690" y="85" width="320" height="90" rx="18" fill="#0f172a"/><text x="850" y="140" text-anchor="middle" class="t h" style="fill:#fff">Strategy</text>
  <path class="e" d="M690 130H220V220"/><path class="e" d="M1010 130H1480V780H1365"/>
  <text x="70" y="218" class="t l">Strategy-linked sources</text>
  <g fill="#eff6ff" stroke="#2563eb" stroke-width="2"><rect x="80" y="245" width="280" height="70" rx="14"/><rect x="80" y="345" width="280" height="70" rx="14"/><rect x="80" y="445" width="280" height="70" rx="14"/><rect x="80" y="545" width="280" height="70" rx="14"/><rect x="80" y="645" width="280" height="70" rx="14"/><rect x="80" y="745" width="280" height="70" rx="14"/></g>
  <text x="220" y="287" text-anchor="middle" class="t l">Market</text><text x="220" y="387" text-anchor="middle" class="t l">Experiment</text><text x="220" y="487" text-anchor="middle" class="t l">Backtest</text><text x="220" y="587" text-anchor="middle" class="t l">Simulation</text><text x="220" y="687" text-anchor="middle" class="t l">Monitoring</text><text x="220" y="787" text-anchor="middle" class="t l">Benchmark</text>
  <path class="e" d="M360 280H470V505"/><path class="e" d="M360 380H470V505"/><path class="e" d="M360 480H470V505"/><path class="e" d="M360 580H470V505"/><path class="e" d="M360 680H470V505"/><path class="e" d="M360 780H470V505"/>
  <rect x="470" y="430" width="270" height="150" rx="18" fill="#eff6ff" stroke="#2563eb" stroke-width="2"/><text x="605" y="481" text-anchor="middle" class="t l">Source Observations</text><text x="605" y="517" text-anchor="middle" class="t d">metrics · events · results</text><text x="605" y="541" text-anchor="middle" class="t d">method · time · provenance</text>
  <path class="e" d="M740 505H805"/><rect x="805" y="430" width="250" height="150" rx="18" fill="#ecfdf5" stroke="#10b981" stroke-width="2"/><text x="930" y="481" text-anchor="middle" class="t l">Evidence</text><text x="930" y="517" text-anchor="middle" class="t d">claim · metric · source</text><text x="930" y="541" text-anchor="middle" class="t d">support or contradiction</text>
  <path class="e" d="M1055 505H1120"/><rect x="1120" y="430" width="250" height="150" rx="18" fill="#ecfdf5" stroke="#10b981" stroke-width="2"/><text x="1245" y="481" text-anchor="middle" class="t l">Data Confidence</text><text x="1245" y="517" text-anchor="middle" class="t d">quality · freshness · bias</text><text x="1245" y="541" text-anchor="middle" class="t d">fitness for intended use</text>
  <path class="e" d="M1370 505H1435"/><rect x="1435" y="430" width="210" height="150" rx="18" fill="#ecfdf5" stroke="#10b981" stroke-width="2"/><text x="1540" y="495" text-anchor="middle" class="t l">Validation</text><text x="1540" y="531" text-anchor="middle" class="t d">robustness &amp;</text><text x="1540" y="553" text-anchor="middle" class="t d">sufficiency</text>
  <path class="e" d="M1540 580V670H1300"/><rect x="1110" y="630" width="190" height="80" rx="14" fill="#fef3c7" stroke="#f59e0b" stroke-width="2"/><text x="1205" y="678" text-anchor="middle" class="t l">AI Review</text>
  <path class="e" d="M1540 580V780H1300"/><rect x="1110" y="740" width="190" height="80" rx="14" fill="#fef3c7" stroke="#f59e0b" stroke-width="2"/><text x="1205" y="788" text-anchor="middle" class="t l">Risk Review</text>
  <path class="e" d="M1110 670H995V725"/><path class="e" d="M1110 780H995V725"/><rect x="805" y="685" width="190" height="80" rx="14" fill="#fef3c7" stroke="#f59e0b" stroke-width="2"/><text x="900" y="733" text-anchor="middle" class="t l">Review</text>
  <path class="e" d="M805 725H685"/><rect x="495" y="685" width="190" height="80" rx="14" fill="#fef3c7" stroke="#f59e0b" stroke-width="2"/><text x="590" y="733" text-anchor="middle" class="t l">Decision</text>
  <path class="e" d="M590 685V130H690"/><text x="630" y="405" class="t d">governs Strategy</text>
</svg>
