<svg xmlns="http://www.w3.org/2000/svg" width="1800" height="1120" viewBox="0 0 1800 1120" role="img" aria-labelledby="title desc">
  <title id="title">Object relationship diagram</title><desc id="desc">All research, evidence, governance, observation, portfolio and knowledge objects connect to Strategy.</desc>
  <defs><marker id="a" viewBox="0 0 10 10" refX="9" refY="5" markerWidth="7" markerHeight="7" orient="auto-start-reverse"><path d="M0 0L10 5L0 10z" fill="#64748b"/></marker><style>.t{font-family:Inter,system-ui,sans-serif;fill:#0f172a}.h{font-size:30px;font-weight:700}.gh{font-size:20px;font-weight:700}.l{font-size:15px;font-weight:700}.e{fill:none;stroke:#64748b;stroke-width:2.2;marker-start:url(#a);marker-end:url(#a)}.n{stroke-width:1.5}</style></defs>
  <rect width="1800" height="1120" rx="24" fill="#f8fafc"/><text x="900" y="54" text-anchor="middle" class="t h">Object Relationship Diagram</text>
  <path class="e" d="M900 470L450 310"/><path class="e" d="M900 470L1350 310"/><path class="e" d="M900 650L450 830"/><path class="e" d="M900 650L1350 830"/>
  <rect x="700" y="440" width="400" height="240" rx="32" fill="#0f172a"/><text x="900" y="548" text-anchor="middle" class="t h" style="fill:#fff">Strategy</text><text x="900" y="588" text-anchor="middle" class="t gh" style="fill:#cbd5e1">identity · version · state</text>
  <rect x="55" y="95" width="760" height="370" rx="22" fill="#eff6ff" stroke="#2563eb" stroke-width="2"/><text x="435" y="138" text-anchor="middle" class="t gh" style="fill:#1e3a8a">Research Objects</text>
  <g fill="#fff" stroke="#2563eb" class="n"><rect x="95" y="175" width="190" height="64" rx="12"/><rect x="330" y="175" width="190" height="64" rx="12"/><rect x="565" y="175" width="190" height="64" rx="12"/><rect x="95" y="285" width="190" height="64" rx="12"/><rect x="330" y="285" width="190" height="64" rx="12"/><rect x="565" y="285" width="190" height="64" rx="12"/></g><text x="190" y="214" text-anchor="middle" class="t l">Research</text><text x="425" y="214" text-anchor="middle" class="t l">Hypothesis</text><text x="660" y="214" text-anchor="middle" class="t l">Experiment</text><text x="190" y="324" text-anchor="middle" class="t l">Backtest</text><text x="425" y="324" text-anchor="middle" class="t l">Benchmark</text><text x="660" y="324" text-anchor="middle" class="t l">Simulation</text>
  <rect x="985" y="95" width="760" height="370" rx="22" fill="#ecfdf5" stroke="#10b981" stroke-width="2"/><text x="1365" y="138" text-anchor="middle" class="t gh" style="fill:#065f46">Evidence &amp; Validation Objects</text><g fill="#fff" stroke="#10b981" class="n"><rect x="1060" y="205" width="210" height="72" rx="12"/><rect x="1260" y="315" width="210" height="72" rx="12"/><rect x="1460" y="205" width="210" height="72" rx="12"/></g><text x="1165" y="248" text-anchor="middle" class="t l">Evidence</text><text x="1365" y="350" text-anchor="middle" class="t l">Data Confidence</text><text x="1565" y="248" text-anchor="middle" class="t l">Validation</text>
  <rect x="55" y="655" width="760" height="400" rx="22" fill="#fef3c7" stroke="#f59e0b" stroke-width="2"/><text x="435" y="700" text-anchor="middle" class="t gh" style="fill:#78350f">Governance Objects</text><g fill="#fff" stroke="#f59e0b" class="n"><rect x="95" y="740" width="190" height="64" rx="12"/><rect x="330" y="740" width="190" height="64" rx="12"/><rect x="565" y="740" width="190" height="64" rx="12"/><rect x="95" y="855" width="190" height="64" rx="12"/><rect x="330" y="855" width="190" height="64" rx="12"/><rect x="565" y="855" width="190" height="64" rx="12"/></g><text x="190" y="779" text-anchor="middle" class="t l">AI Review</text><text x="425" y="779" text-anchor="middle" class="t l">Review</text><text x="660" y="779" text-anchor="middle" class="t l">Risk Review</text><text x="190" y="894" text-anchor="middle" class="t l">Guardrails</text><text x="425" y="894" text-anchor="middle" class="t l">Decision</text><text x="660" y="894" text-anchor="middle" class="t l">Lifecycle</text>
  <rect x="985" y="655" width="760" height="400" rx="22" fill="#f5f3ff" stroke="#8b5cf6" stroke-width="2"/><text x="1365" y="700" text-anchor="middle" class="t gh" style="fill:#4c1d95">Observation, Context &amp; Knowledge</text><g fill="#fff" stroke="#8b5cf6" class="n"><rect x="1045" y="740" width="190" height="64" rx="12"/><rect x="1270" y="740" width="190" height="64" rx="12"/><rect x="1495" y="740" width="190" height="64" rx="12"/><rect x="1160" y="855" width="190" height="64" rx="12"/><rect x="1385" y="855" width="190" height="64" rx="12"/></g><text x="1140" y="779" text-anchor="middle" class="t l">Market</text><text x="1365" y="779" text-anchor="middle" class="t l">Monitoring</text><text x="1590" y="779" text-anchor="middle" class="t l">Health Score</text><text x="1255" y="894" text-anchor="middle" class="t l">Portfolio</text><text x="1480" y="894" text-anchor="middle" class="t l">Notebook</text>
</svg>
