<svg xmlns="http://www.w3.org/2000/svg" width="1400" height="920" viewBox="0 0 1400 920" role="img" aria-labelledby="title desc">
  <title id="title">Strategy domain diagram</title><desc id="desc">Strategy is the aggregate center connected to six bounded contexts.</desc>
  <defs><marker id="a" viewBox="0 0 10 10" refX="9" refY="5" markerWidth="7" markerHeight="7" orient="auto-start-reverse"><path d="M0 0L10 5L0 10z" fill="#64748b"/></marker><filter id="s"><feDropShadow dx="0" dy="4" stdDeviation="6" flood-color="#0f172a" flood-opacity=".1"/></filter><style>.t{font-family:Inter,system-ui,sans-serif;fill:#0f172a}.h{font-size:30px;font-weight:700}.l{font-size:20px;font-weight:700}.d{font-size:14px;fill:#475569}.e{fill:none;stroke:#64748b;stroke-width:2.4;marker-start:url(#a);marker-end:url(#a)}</style></defs>
  <rect width="1400" height="920" rx="24" fill="#f8fafc"/><text x="700" y="56" text-anchor="middle" class="t h">Strategy Domain</text>
  <path class="e" d="M700 365V230"/><path class="e" d="M570 405L350 255"/><path class="e" d="M830 405L1050 255"/><path class="e" d="M570 515L350 665"/><path class="e" d="M830 515L1050 665"/><path class="e" d="M700 555V730"/>
  <rect x="500" y="365" width="400" height="190" rx="28" fill="#0f172a" filter="url(#s)"/><text x="700" y="447" text-anchor="middle" class="t h" style="fill:#fff">Strategy</text><text x="700" y="486" text-anchor="middle" class="t l" style="fill:#cbd5e1">Aggregate Center</text>
  <rect x="490" y="105" width="420" height="125" rx="18" fill="#f1f5f9" stroke="#64748b" stroke-width="2"/><text x="700" y="154" text-anchor="middle" class="t l">Strategy Registry</text><text x="700" y="187" text-anchor="middle" class="t d">Identity · Version · Lifecycle</text>
  <rect x="75" y="150" width="430" height="150" rx="18" fill="#eff6ff" stroke="#2563eb" stroke-width="2"/><text x="290" y="201" text-anchor="middle" class="t l">Research</text><text x="290" y="235" text-anchor="middle" class="t d">Hypothesis · Experiment · Backtest</text><text x="290" y="259" text-anchor="middle" class="t d">Benchmark · Simulation</text>
  <rect x="895" y="150" width="430" height="150" rx="18" fill="#ecfdf5" stroke="#10b981" stroke-width="2"/><text x="1110" y="201" text-anchor="middle" class="t l">Evidence &amp; Validation</text><text x="1110" y="235" text-anchor="middle" class="t d">Evidence · Data Confidence</text><text x="1110" y="259" text-anchor="middle" class="t d">Validation</text>
  <rect x="75" y="620" width="430" height="150" rx="18" fill="#f5f3ff" stroke="#8b5cf6" stroke-width="2"/><text x="290" y="671" text-anchor="middle" class="t l">Observation &amp; Health</text><text x="290" y="705" text-anchor="middle" class="t d">Market · Monitoring</text><text x="290" y="729" text-anchor="middle" class="t d">Health Score</text>
  <rect x="895" y="620" width="430" height="150" rx="18" fill="#fef3c7" stroke="#f59e0b" stroke-width="2"/><text x="1110" y="671" text-anchor="middle" class="t l">Review &amp; Governance</text><text x="1110" y="705" text-anchor="middle" class="t d">AI Review · Risk Review · Review</text><text x="1110" y="729" text-anchor="middle" class="t d">Guardrails · Decision</text>
  <rect x="490" y="730" width="420" height="125" rx="18" fill="#ecfeff" stroke="#06b6d4" stroke-width="2"/><text x="700" y="779" text-anchor="middle" class="t l">Portfolio &amp; Knowledge</text><text x="700" y="812" text-anchor="middle" class="t d">Portfolio · Notebook</text>
</svg>
