<svg xmlns="http://www.w3.org/2000/svg" width="1100" height="900" viewBox="0 0 1100 900" role="img" aria-labelledby="title desc">
  <title id="title">Core objects</title>
  <desc id="desc">Strategy-centered object relationship diagram.</desc>
  <defs>
    <marker id="arrow" viewBox="0 0 10 10" refX="9" refY="5" markerWidth="8" markerHeight="8" orient="auto"><path d="M0 0L10 5L0 10z" fill="#64748b"/></marker>
    <marker id="arrowDash" viewBox="0 0 10 10" refX="9" refY="5" markerWidth="8" markerHeight="8" orient="auto"><path d="M0 0L10 5L0 10z" fill="#94a3b8"/></marker>
    <filter id="shadow" x="-10%" y="-10%" width="120%" height="130%"><feDropShadow dx="0" dy="3" stdDeviation="5" flood-color="#0f172a" flood-opacity="0.08"/></filter>
    <style>
      .text{font-family:Inter,ui-sans-serif,system-ui,-apple-system,"Segoe UI",sans-serif;fill:#0f172a}.title{font-size:26px;font-weight:700}.label{font-size:15px;font-weight:650}.sub{font-size:12px;font-weight:500;fill:#475569}.line{fill:none;stroke:#64748b;stroke-width:2.2;marker-end:url(#arrow)}.dash{fill:none;stroke:#94a3b8;stroke-width:1.8;stroke-dasharray:6 5;marker-end:url(#arrowDash)}
    </style>
  </defs>
  <rect width="1100" height="900" rx="24" fill="#f8fafc"/>
  <text x="550" y="48" text-anchor="middle" class="text title">Core Objects · Strategy Hub</text>
  <rect x="400" y="380" width="300" height="100" rx="16" fill="#0f172a" stroke="#0f172a" stroke-width="2" filter="url(#shadow)"/>
  <text x="550" y="425" text-anchor="middle" class="text label" style="fill:#ffffff">Strategy</text>
  <text x="550" y="450" text-anchor="middle" class="text sub" style="fill:#cbd5e1">Center of the domain model</text>
  <rect x="80" y="120" width="220" height="72" rx="14" fill="#eff6ff" stroke="#2563eb" stroke-width="2" filter="url(#shadow)"/>
  <text x="190.0" y="161.0" text-anchor="middle" class="text label">Backtest</text>  <rect x="420" y="80" width="220" height="72" rx="14" fill="#eff6ff" stroke="#2563eb" stroke-width="2" filter="url(#shadow)"/>
  <text x="530.0" y="121.0" text-anchor="middle" class="text label">Validation</text>  <rect x="760" y="120" width="220" height="72" rx="14" fill="#fef3c7" stroke="#f59e0b" stroke-width="2" filter="url(#shadow)"/>
  <text x="870.0" y="161.0" text-anchor="middle" class="text label">Risk Review</text>  <rect x="80" y="380" width="220" height="72" rx="14" fill="#ecfdf5" stroke="#10b981" stroke-width="2" filter="url(#shadow)"/>
  <text x="190.0" y="421.0" text-anchor="middle" class="text label">Market</text>  <rect x="760" y="380" width="220" height="72" rx="14" fill="#ecfdf5" stroke="#10b981" stroke-width="2" filter="url(#shadow)"/>
  <text x="870.0" y="421.0" text-anchor="middle" class="text label">Portfolio</text>  <rect x="80" y="640" width="220" height="72" rx="14" fill="#ecfdf5" stroke="#10b981" stroke-width="2" filter="url(#shadow)"/>
  <text x="190.0" y="681.0" text-anchor="middle" class="text label">Simulation</text>  <rect x="420" y="700" width="220" height="72" rx="14" fill="#f5f3ff" stroke="#8b5cf6" stroke-width="2" filter="url(#shadow)"/>
  <text x="530.0" y="741.0" text-anchor="middle" class="text label">Notebook</text>  <rect x="760" y="640" width="220" height="72" rx="14" fill="#fef3c7" stroke="#f59e0b" stroke-width="2" filter="url(#shadow)"/>
  <text x="870.0" y="681.0" text-anchor="middle" class="text label">Decision Journal</text>  <rect x="420" y="200" width="220" height="72" rx="14" fill="#fef3c7" stroke="#f59e0b" stroke-width="2" filter="url(#shadow)"/>
  <text x="530.0" y="241.0" text-anchor="middle" class="text label">Research Review</text>  <path class="line" d="M190 192L400 400"/>  <path class="line" d="M530 152L550 380"/>  <path class="line" d="M870 192L700 400"/>  <path class="line" d="M300 416L400 430"/>  <path class="line" d="M800 416L700 430"/>  <path class="line" d="M190 640L420 480"/>  <path class="line" d="M530 700L550 480"/>  <path class="line" d="M870 640L700 480"/>  <path class="line" d="M530 272L550 380"/></svg>
