<svg xmlns="http://www.w3.org/2000/svg" width="520" height="980" viewBox="0 0 520 980" role="img" aria-labelledby="title desc">
  <title id="title">Sidebar navigation</title>
  <desc id="desc">Four-section expandable sidebar.</desc>
  <defs>
    <marker id="arrow" viewBox="0 0 10 10" refX="9" refY="5" markerWidth="8" markerHeight="8" orient="auto"><path d="M0 0L10 5L0 10z" fill="#64748b"/></marker>
    <marker id="arrowDash" viewBox="0 0 10 10" refX="9" refY="5" markerWidth="8" markerHeight="8" orient="auto"><path d="M0 0L10 5L0 10z" fill="#94a3b8"/></marker>
    <filter id="shadow" x="-10%" y="-10%" width="120%" height="130%"><feDropShadow dx="0" dy="3" stdDeviation="5" flood-color="#0f172a" flood-opacity="0.08"/></filter>
    <style>
      .text{font-family:Inter,ui-sans-serif,system-ui,-apple-system,"Segoe UI",sans-serif;fill:#0f172a}.title{font-size:26px;font-weight:700}.label{font-size:15px;font-weight:650}.sub{font-size:12px;font-weight:500;fill:#475569}.line{fill:none;stroke:#64748b;stroke-width:2.2;marker-end:url(#arrow)}.dash{fill:none;stroke:#94a3b8;stroke-width:1.8;stroke-dasharray:6 5;marker-end:url(#arrowDash)}
    </style>
  </defs>
  <rect width="520" height="980" rx="24" fill="#f8fafc"/>
  <text x="260" y="42" text-anchor="middle" class="text title">Sidebar Navigation</text>
  <rect x="60" y="70" width="400" height="48" rx="14" fill="#0f172a" stroke="#0f172a" stroke-width="2" filter="url(#shadow)"/>
  <text x="260.0" y="99.0" text-anchor="middle" class="text label" style="fill:#ffffff">Home</text>  <rect x="60" y="140" width="400" height="48" rx="14" fill="#eff6ff" stroke="#2563eb" stroke-width="2" filter="url(#shadow)"/>
  <text x="260.0" y="169.0" text-anchor="middle" class="text label">▾ Discover</text>  <rect x="90" y="196" width="340" height="40" rx="14" fill="#ffffff" stroke="#cbd5e1" stroke-width="2" filter="url(#shadow)"/>
  <text x="260.0" y="221.0" text-anchor="middle" class="text label">Market Intelligence</text>  <rect x="90" y="244" width="340" height="40" rx="14" fill="#ffffff" stroke="#cbd5e1" stroke-width="2" filter="url(#shadow)"/>
  <text x="260.0" y="269.0" text-anchor="middle" class="text label">Idea Inbox</text>  <rect x="90" y="292" width="340" height="40" rx="14" fill="#ffffff" stroke="#cbd5e1" stroke-width="2" filter="url(#shadow)"/>
  <text x="260.0" y="317.0" text-anchor="middle" class="text label">Research Queue</text>  <rect x="60" y="348" width="400" height="48" rx="14" fill="#dbeafe" stroke="#3b82f6" stroke-width="2" filter="url(#shadow)"/>
  <text x="260.0" y="377.0" text-anchor="middle" class="text label">▾ Research</text>  <rect x="90" y="404" width="340" height="40" rx="14" fill="#ffffff" stroke="#cbd5e1" stroke-width="2" filter="url(#shadow)"/>
  <text x="260.0" y="429.0" text-anchor="middle" class="text label">Research Lab</text>  <rect x="90" y="452" width="340" height="40" rx="14" fill="#ffffff" stroke="#cbd5e1" stroke-width="2" filter="url(#shadow)"/>
  <text x="260.0" y="477.0" text-anchor="middle" class="text label">Backtesting</text>  <rect x="90" y="500" width="340" height="40" rx="14" fill="#ffffff" stroke="#cbd5e1" stroke-width="2" filter="url(#shadow)"/>
  <text x="260.0" y="525.0" text-anchor="middle" class="text label">Validation Center</text>  <rect x="90" y="548" width="340" height="40" rx="14" fill="#ffffff" stroke="#cbd5e1" stroke-width="2" filter="url(#shadow)"/>
  <text x="260.0" y="573.0" text-anchor="middle" class="text label">Benchmark Center</text>  <rect x="90" y="596" width="340" height="40" rx="14" fill="#ffffff" stroke="#cbd5e1" stroke-width="2" filter="url(#shadow)"/>
  <text x="260.0" y="621.0" text-anchor="middle" class="text label">AI Review</text>  <rect x="60" y="652" width="400" height="48" rx="14" fill="#fef3c7" stroke="#f59e0b" stroke-width="2" filter="url(#shadow)"/>
  <text x="260.0" y="681.0" text-anchor="middle" class="text label">▾ Govern</text>  <rect x="90" y="708" width="340" height="40" rx="14" fill="#ffffff" stroke="#cbd5e1" stroke-width="2" filter="url(#shadow)"/>
  <text x="260.0" y="733.0" text-anchor="middle" class="text label">Strategy Registry</text>  <rect x="90" y="756" width="340" height="40" rx="14" fill="#ffffff" stroke="#cbd5e1" stroke-width="2" filter="url(#shadow)"/>
  <text x="260.0" y="781.0" text-anchor="middle" class="text label">Risk Governance</text>  <rect x="90" y="804" width="340" height="40" rx="14" fill="#ffffff" stroke="#cbd5e1" stroke-width="2" filter="url(#shadow)"/>
  <text x="260.0" y="829.0" text-anchor="middle" class="text label">Portfolio Review</text>  <rect x="90" y="852" width="340" height="40" rx="14" fill="#ffffff" stroke="#cbd5e1" stroke-width="2" filter="url(#shadow)"/>
  <text x="260.0" y="877.0" text-anchor="middle" class="text label">Research Notebook</text>  <rect x="60" y="908" width="400" height="48" rx="14" fill="#ecfdf5" stroke="#10b981" stroke-width="2" filter="url(#shadow)"/>
  <text x="260.0" y="937.0" text-anchor="middle" class="text label">▾ Operate</text>  <rect x="90" y="964" width="340" height="40" rx="14" fill="#ffffff" stroke="#cbd5e1" stroke-width="2" filter="url(#shadow)"/>
  <text x="260.0" y="989.0" text-anchor="middle" class="text label">Paper Trading</text>  <rect x="90" y="1012" width="340" height="40" rx="14" fill="#ffffff" stroke="#cbd5e1" stroke-width="2" filter="url(#shadow)"/>
  <text x="260.0" y="1037.0" text-anchor="middle" class="text label">Monitoring</text>  <rect x="90" y="1060" width="340" height="40" rx="14" fill="#ffffff" stroke="#cbd5e1" stroke-width="2" filter="url(#shadow)"/>
  <text x="260.0" y="1085.0" text-anchor="middle" class="text label">Alerts</text>  <rect x="60" y="1116" width="400" height="48" rx="14" fill="#f1f5f9" stroke="#64748b" stroke-width="2" filter="url(#shadow)"/>
  <text x="260.0" y="1145.0" text-anchor="middle" class="text label">Settings</text></svg>
