<svg xmlns="http://www.w3.org/2000/svg" width="1100" height="820" viewBox="0 0 1100 820" role="img" aria-labelledby="title desc">
  <title id="title">Site map</title>
  <desc id="desc">Workspace information architecture site map.</desc>
  <defs>
    <marker id="arrow" viewBox="0 0 10 10" refX="9" refY="5" markerWidth="8" markerHeight="8" orient="auto"><path d="M0 0L10 5L0 10z" fill="#64748b"/></marker>
    <filter id="shadow" x="-10%" y="-10%" width="120%" height="130%"><feDropShadow dx="0" dy="3" stdDeviation="5" flood-color="#0f172a" flood-opacity="0.08"/></filter>
    <style>.text{font-family:Inter,ui-sans-serif,system-ui,-apple-system,"Segoe UI",sans-serif;fill:#0f172a}.title{font-size:26px;font-weight:700}.label{font-size:14px;font-weight:650}.line{fill:none;stroke:#64748b;stroke-width:2.2;marker-end:url(#arrow)}</style>
  </defs>
  <rect width="1100" height="820" rx="24" fill="#f8fafc"/>
  <text x="550" y="42" text-anchor="middle" class="text title">Site Map · Workspace IA</text>
  <rect x="425" y="70" width="250" height="56" rx="14" fill="#0f172a" stroke="#0f172a" stroke-width="2" filter="url(#shadow)"/>
  <text x="550" y="105" text-anchor="middle" class="text label" style="fill:#ffffff">Workspace</text>
  <rect x="40" y="180" width="190" height="56" rx="14" fill="#eff6ff" stroke="#2563eb" stroke-width="2" filter="url(#shadow)"/>
  <text x="135.0" y="213.0" text-anchor="middle" class="text label">Home</text>
  <path class="line" d="M135 126V180"/>
  <path class="line" d="M135 236V260"/>
  <rect x="40" y="260" width="190" height="44" rx="14" fill="#f8fafc" stroke="#94a3b8" stroke-width="2" filter="url(#shadow)"/>
  <text x="135.0" y="287.0" text-anchor="middle" class="text label">Overview bands</text>
  <rect x="250" y="180" width="190" height="56" rx="14" fill="#eff6ff" stroke="#2563eb" stroke-width="2" filter="url(#shadow)"/>
  <text x="345.0" y="213.0" text-anchor="middle" class="text label">Discover</text>
  <path class="line" d="M345 126V180"/>
  <path class="line" d="M345 236V260"/>
  <rect x="250" y="260" width="190" height="44" rx="14" fill="#f8fafc" stroke="#94a3b8" stroke-width="2" filter="url(#shadow)"/>
  <text x="345.0" y="287.0" text-anchor="middle" class="text label">Market Intelligence</text>
  <rect x="250" y="316" width="190" height="44" rx="14" fill="#f8fafc" stroke="#94a3b8" stroke-width="2" filter="url(#shadow)"/>
  <text x="345.0" y="343.0" text-anchor="middle" class="text label">Idea Inbox</text>
  <path class="line" d="M345 304V316"/>
  <rect x="250" y="372" width="190" height="44" rx="14" fill="#f8fafc" stroke="#94a3b8" stroke-width="2" filter="url(#shadow)"/>
  <text x="345.0" y="399.0" text-anchor="middle" class="text label">Research Queue</text>
  <path class="line" d="M345 360V372"/>
  <rect x="460" y="180" width="190" height="56" rx="14" fill="#dbeafe" stroke="#3b82f6" stroke-width="2" filter="url(#shadow)"/>
  <text x="555.0" y="213.0" text-anchor="middle" class="text label">Research</text>
  <path class="line" d="M555 126V180"/>
  <path class="line" d="M555 236V260"/>
  <rect x="460" y="260" width="190" height="44" rx="14" fill="#f8fafc" stroke="#94a3b8" stroke-width="2" filter="url(#shadow)"/>
  <text x="555.0" y="287.0" text-anchor="middle" class="text label">Research Lab</text>
  <rect x="460" y="316" width="190" height="44" rx="14" fill="#f8fafc" stroke="#94a3b8" stroke-width="2" filter="url(#shadow)"/>
  <text x="555.0" y="343.0" text-anchor="middle" class="text label">Backtesting</text>
  <path class="line" d="M555 304V316"/>
  <rect x="460" y="372" width="190" height="44" rx="14" fill="#f8fafc" stroke="#94a3b8" stroke-width="2" filter="url(#shadow)"/>
  <text x="555.0" y="399.0" text-anchor="middle" class="text label">Validation Center</text>
  <path class="line" d="M555 360V372"/>
  <rect x="460" y="428" width="190" height="44" rx="14" fill="#f8fafc" stroke="#94a3b8" stroke-width="2" filter="url(#shadow)"/>
  <text x="555.0" y="455.0" text-anchor="middle" class="text label">Benchmark Center</text>
  <path class="line" d="M555 416V428"/>
  <rect x="460" y="484" width="190" height="44" rx="14" fill="#f8fafc" stroke="#94a3b8" stroke-width="2" filter="url(#shadow)"/>
  <text x="555.0" y="511.0" text-anchor="middle" class="text label">AI Review</text>
  <path class="line" d="M555 472V484"/>
  <rect x="670" y="180" width="190" height="56" rx="14" fill="#fef3c7" stroke="#f59e0b" stroke-width="2" filter="url(#shadow)"/>
  <text x="765.0" y="213.0" text-anchor="middle" class="text label">Govern</text>
  <path class="line" d="M765 126V180"/>
  <path class="line" d="M765 236V260"/>
  <rect x="670" y="260" width="190" height="44" rx="14" fill="#f8fafc" stroke="#94a3b8" stroke-width="2" filter="url(#shadow)"/>
  <text x="765.0" y="287.0" text-anchor="middle" class="text label">Strategy Registry</text>
  <rect x="670" y="316" width="190" height="44" rx="14" fill="#f8fafc" stroke="#94a3b8" stroke-width="2" filter="url(#shadow)"/>
  <text x="765.0" y="343.0" text-anchor="middle" class="text label">Risk Governance</text>
  <path class="line" d="M765 304V316"/>
  <rect x="670" y="372" width="190" height="44" rx="14" fill="#f8fafc" stroke="#94a3b8" stroke-width="2" filter="url(#shadow)"/>
  <text x="765.0" y="399.0" text-anchor="middle" class="text label">Portfolio Review</text>
  <path class="line" d="M765 360V372"/>
  <rect x="670" y="428" width="190" height="44" rx="14" fill="#f8fafc" stroke="#94a3b8" stroke-width="2" filter="url(#shadow)"/>
  <text x="765.0" y="455.0" text-anchor="middle" class="text label">Research Notebook</text>
  <path class="line" d="M765 416V428"/>
  <rect x="880" y="180" width="190" height="56" rx="14" fill="#ecfdf5" stroke="#10b981" stroke-width="2" filter="url(#shadow)"/>
  <text x="975.0" y="213.0" text-anchor="middle" class="text label">Operate</text>
  <path class="line" d="M975 126V180"/>
  <path class="line" d="M975 236V260"/>
  <rect x="880" y="260" width="190" height="44" rx="14" fill="#f8fafc" stroke="#94a3b8" stroke-width="2" filter="url(#shadow)"/>
  <text x="975.0" y="287.0" text-anchor="middle" class="text label">Paper Trading</text>
  <rect x="880" y="316" width="190" height="44" rx="14" fill="#f8fafc" stroke="#94a3b8" stroke-width="2" filter="url(#shadow)"/>
  <text x="975.0" y="343.0" text-anchor="middle" class="text label">Monitoring</text>
  <path class="line" d="M975 304V316"/>
  <rect x="880" y="372" width="190" height="44" rx="14" fill="#f8fafc" stroke="#94a3b8" stroke-width="2" filter="url(#shadow)"/>
  <text x="975.0" y="399.0" text-anchor="middle" class="text label">Alerts</text>
  <path class="line" d="M975 360V372"/>
  <rect x="900" y="70" width="140" height="48" rx="14" fill="#f1f5f9" stroke="#64748b" stroke-width="2" filter="url(#shadow)"/>
  <text x="970.0" y="99.0" text-anchor="middle" class="text label">Settings</text>
  <path class="line" d="M675 98H900"/>
</svg>
