<svg xmlns="http://www.w3.org/2000/svg" width="1100" height="720" viewBox="0 0 1100 720" role="img" aria-labelledby="title desc">
  <title id="title">Strategy registry flow</title>
  <desc id="desc">Registry click-through to strategy shell.</desc>
  <defs>
    <marker id="arrow" viewBox="0 0 10 10" refX="9" refY="5" markerWidth="8" markerHeight="8" orient="auto"><path d="M0 0L10 5L0 10z" fill="#64748b"/></marker>
    <marker id="arrowDash" viewBox="0 0 10 10" refX="9" refY="5" markerWidth="8" markerHeight="8" orient="auto"><path d="M0 0L10 5L0 10z" fill="#94a3b8"/></marker>
    <filter id="shadow" x="-10%" y="-10%" width="120%" height="130%"><feDropShadow dx="0" dy="3" stdDeviation="5" flood-color="#0f172a" flood-opacity="0.08"/></filter>
    <style>
      .text{font-family:Inter,ui-sans-serif,system-ui,-apple-system,"Segoe UI",sans-serif;fill:#0f172a}.title{font-size:26px;font-weight:700}.label{font-size:15px;font-weight:650}.sub{font-size:12px;font-weight:500;fill:#475569}.line{fill:none;stroke:#64748b;stroke-width:2.2;marker-end:url(#arrow)}.dash{fill:none;stroke:#94a3b8;stroke-width:1.8;stroke-dasharray:6 5;marker-end:url(#arrowDash)}
    </style>
  </defs>
  <rect width="1100" height="720" rx="24" fill="#f8fafc"/>
  <text x="550" y="48" text-anchor="middle" class="text title">Strategy Registry · Navigation Flow</text>
  <rect x="40" y="300" width="220" height="90" rx="14" fill="#fef3c7" stroke="#f59e0b" stroke-width="2" filter="url(#shadow)"/>
  <text x="150.0" y="341.0" text-anchor="middle" class="text label">Strategy Registry</text>
  <text x="150.0" y="361.0" text-anchor="middle" class="text sub">Stage · Health · Risk · Next</text>  <rect x="340" y="300" width="220" height="90" rx="14" fill="#0f172a" stroke="#0f172a" stroke-width="2" filter="url(#shadow)"/>
  <text x="450" y="340" text-anchor="middle" class="text label" style="fill:#ffffff">Selected Strategy</text>
  <text x="450" y="365" text-anchor="middle" class="text sub" style="fill:#cbd5e1">Strategy shell</text>
  <path class="line" d="M260 345H340"/>  <rect x="620" y="80" width="220" height="70" rx="14" fill="#eff6ff" stroke="#2563eb" stroke-width="2" filter="url(#shadow)"/>
  <text x="730.0" y="120.0" text-anchor="middle" class="text label">Overview</text>  <path class="line" d="M560 345L620 115"/>  <rect x="820" y="80" width="220" height="70" rx="14" fill="#eff6ff" stroke="#2563eb" stroke-width="2" filter="url(#shadow)"/>
  <text x="930.0" y="120.0" text-anchor="middle" class="text label">Research</text>  <path class="line" d="M560 345L820 115"/>  <rect x="620" y="180" width="220" height="70" rx="14" fill="#eff6ff" stroke="#2563eb" stroke-width="2" filter="url(#shadow)"/>
  <text x="730.0" y="220.0" text-anchor="middle" class="text label">Validation</text>  <path class="line" d="M560 345L620 215"/>  <rect x="820" y="180" width="220" height="70" rx="14" fill="#eff6ff" stroke="#2563eb" stroke-width="2" filter="url(#shadow)"/>
  <text x="930.0" y="220.0" text-anchor="middle" class="text label">AI Review</text>  <path class="line" d="M560 345L820 215"/>  <rect x="620" y="280" width="220" height="70" rx="14" fill="#eff6ff" stroke="#2563eb" stroke-width="2" filter="url(#shadow)"/>
  <text x="730.0" y="320.0" text-anchor="middle" class="text label">Risk</text>  <path class="line" d="M560 345L620 315"/>  <rect x="820" y="280" width="220" height="70" rx="14" fill="#eff6ff" stroke="#2563eb" stroke-width="2" filter="url(#shadow)"/>
  <text x="930.0" y="320.0" text-anchor="middle" class="text label">Notebook</text>  <path class="line" d="M560 345L820 315"/>  <rect x="620" y="380" width="220" height="70" rx="14" fill="#eff6ff" stroke="#2563eb" stroke-width="2" filter="url(#shadow)"/>
  <text x="730.0" y="420.0" text-anchor="middle" class="text label">History</text>  <path class="line" d="M560 345L620 415"/>  <rect x="820" y="380" width="220" height="70" rx="14" fill="#eff6ff" stroke="#2563eb" stroke-width="2" filter="url(#shadow)"/>
  <text x="930.0" y="420.0" text-anchor="middle" class="text label">Portfolio Impact</text>  <path class="line" d="M560 345L820 415"/></svg>
