<svg xmlns="http://www.w3.org/2000/svg" width="1000" height="760" viewBox="0 0 1000 760" role="img" aria-labelledby="title desc">
  <title id="title">Workspace home layout</title>
  <desc id="desc">Structural layout of Workspace Home.</desc>
  <defs>
    <marker id="arrow" viewBox="0 0 10 10" refX="9" refY="5" markerWidth="8" markerHeight="8" orient="auto"><path d="M0 0L10 5L0 10z" fill="#64748b"/></marker>
    <marker id="arrowDash" viewBox="0 0 10 10" refX="9" refY="5" markerWidth="8" markerHeight="8" orient="auto"><path d="M0 0L10 5L0 10z" fill="#94a3b8"/></marker>
    <filter id="shadow" x="-10%" y="-10%" width="120%" height="130%"><feDropShadow dx="0" dy="3" stdDeviation="5" flood-color="#0f172a" flood-opacity="0.08"/></filter>
    <style>
      .text{font-family:Inter,ui-sans-serif,system-ui,-apple-system,"Segoe UI",sans-serif;fill:#0f172a}.title{font-size:26px;font-weight:700}.label{font-size:15px;font-weight:650}.sub{font-size:12px;font-weight:500;fill:#475569}.line{fill:none;stroke:#64748b;stroke-width:2.2;marker-end:url(#arrow)}.dash{fill:none;stroke:#94a3b8;stroke-width:1.8;stroke-dasharray:6 5;marker-end:url(#arrowDash)}
    </style>
  </defs>
  <rect width="1000" height="760" rx="24" fill="#f8fafc"/>
  <text x="500" y="48" text-anchor="middle" class="text title">Workspace Home · Layout Structure</text>
  <rect x="80" y="90" width="840" height="80" rx="14" fill="#0f172a" stroke="#0f172a" stroke-width="2" filter="url(#shadow)"/>
  <text x="500.0" y="135.0" text-anchor="middle" class="text label" style="fill:#ffffff">Research Overview</text>
  <rect x="80" y="200" width="200" height="120" rx="14" fill="#eff6ff" stroke="#2563eb" stroke-width="2" filter="url(#shadow)"/>
  <text x="180.0" y="265.0" text-anchor="middle" class="text label">Strategies</text>  <rect x="300" y="200" width="200" height="120" rx="14" fill="#eff6ff" stroke="#2563eb" stroke-width="2" filter="url(#shadow)"/>
  <text x="400.0" y="265.0" text-anchor="middle" class="text label">Research Queue</text>  <rect x="520" y="200" width="200" height="120" rx="14" fill="#eff6ff" stroke="#2563eb" stroke-width="2" filter="url(#shadow)"/>
  <text x="620.0" y="265.0" text-anchor="middle" class="text label">Monitoring</text>  <rect x="740" y="200" width="180" height="120" rx="14" fill="#eff6ff" stroke="#2563eb" stroke-width="2" filter="url(#shadow)"/>
  <text x="830.0" y="265.0" text-anchor="middle" class="text label">Recent Reviews</text>  <rect x="80" y="350" width="840" height="100" rx="14" fill="#fef3c7" stroke="#f59e0b" stroke-width="2" filter="url(#shadow)"/>
  <text x="500.0" y="405.0" text-anchor="middle" class="text label">Strategy Registry (shortlist)</text>  <rect x="80" y="480" width="840" height="100" rx="14" fill="#dbeafe" stroke="#2563eb" stroke-width="2" filter="url(#shadow)"/>
  <text x="500.0" y="535.0" text-anchor="middle" class="text label">Research Timeline</text>  <rect x="80" y="610" width="270" height="100" rx="14" fill="#ecfdf5" stroke="#10b981" stroke-width="2" filter="url(#shadow)"/>
  <text x="215.0" y="665.0" text-anchor="middle" class="text label">Notifications</text>  <rect x="370" y="610" width="270" height="100" rx="14" fill="#ecfdf5" stroke="#10b981" stroke-width="2" filter="url(#shadow)"/>
  <text x="505.0" y="665.0" text-anchor="middle" class="text label">Pending Reviews</text>  <rect x="660" y="610" width="260" height="100" rx="14" fill="#ecfdf5" stroke="#10b981" stroke-width="2" filter="url(#shadow)"/>
  <text x="790.0" y="665.0" text-anchor="middle" class="text label">Latest Findings</text></svg>
