<svg xmlns="http://www.w3.org/2000/svg" width="1650" height="1240" viewBox="0 0 1650 1240" role="img" aria-labelledby="title desc"><title id="title">Monitoring alert to research reopened sequence</title><desc id="desc">Scheduler starts a monitoring scan, Domain raises an alert, Evaluation authorizes reopening, and Research records ResearchReopened while agents and notifications remain non-authoritative.</desc><defs><marker id="a" viewBox="0 0 10 10" refX="9" refY="5" markerWidth="7" markerHeight="7" orient="auto"><path d="M0 0L10 5L0 10z" fill="#64748b"/></marker><style>.t{font-family:Inter,system-ui,sans-serif;fill:#0f172a}.h{font-size:30px;font-weight:700}.l{font-size:15px;font-weight:700}.m{font-size:13px;fill:#334155}.life{stroke:#94a3b8;stroke-width:1.5;stroke-dasharray:6 6}.req{stroke:#2563eb;stroke-width:2;marker-end:url(#a)}.ret{stroke:#10b981;stroke-width:2;stroke-dasharray:6 5;marker-end:url(#a)}</style></defs><rect width="1650" height="1240" rx="24" fill="#f8fafc"/><text x="825" y="54" text-anchor="middle" class="t h">Runtime Sequence — Monitoring Alert to Research Reopened</text>
<g fill="#fff" stroke="#64748b" stroke-width="1.5"><rect x="25" y="90" width="160" height="60" rx="10"/><rect x="225" y="90" width="160" height="60" rx="10"/><rect x="425" y="90" width="160" height="60" rx="10"/><rect x="625" y="90" width="160" height="60" rx="10"/><rect x="825" y="90" width="160" height="60" rx="10"/><rect x="1025" y="90" width="160" height="60" rx="10"/><rect x="1225" y="90" width="160" height="60" rx="10"/><rect x="1425" y="90" width="190" height="60" rx="10"/></g><text x="105" y="127" text-anchor="middle" class="t l">Scheduler</text><text x="305" y="127" text-anchor="middle" class="t l">Application</text><text x="505" y="127" text-anchor="middle" class="t l">Monitoring Policy</text><text x="705" y="127" text-anchor="middle" class="t l">Outbox</text><text x="905" y="127" text-anchor="middle" class="t l">Evaluation</text><text x="1105" y="127" text-anchor="middle" class="t l">Research</text><text x="1305" y="127" text-anchor="middle" class="t l">Notification</text><text x="1520" y="127" text-anchor="middle" class="t l">Review Agent</text>
<g class="life"><line x1="105" y1="150" x2="105" y2="1180"/><line x1="305" y1="150" x2="305" y2="1180"/><line x1="505" y1="150" x2="505" y2="1180"/><line x1="705" y1="150" x2="705" y2="1180"/><line x1="905" y1="150" x2="905" y2="1180"/><line x1="1105" y1="150" x2="1105" y2="1180"/><line x1="1305" y1="150" x2="1305" y2="1180"/><line x1="1520" y1="150" x2="1520" y2="1180"/></g>
<g class="req"><line x1="105" y1="210" x2="305" y2="210"/><line x1="305" y1="270" x2="505" y2="270"/><line x1="305" y1="390" x2="705" y2="390"/><line x1="705" y1="450" x2="305" y2="450"/><line x1="705" y1="510" x2="1305" y2="510"/><line x1="705" y1="570" x2="1520" y2="570"/><line x1="1520" y1="630" x2="305" y2="630"/><line x1="1520" y1="750" x2="305" y2="750"/><line x1="305" y1="810" x2="905" y2="810"/><line x1="305" y1="930" x2="905" y2="930"/><line x1="305" y1="1050" x2="1105" y2="1050"/><line x1="305" y1="1170" x2="705" y2="1170"/></g><g class="ret"><line x1="505" y1="330" x2="305" y2="330"/><line x1="305" y1="690" x2="1520" y2="690"/><line x1="905" y1="870" x2="305" y2="870"/><line x1="905" y1="990" x2="305" y2="990"/><line x1="1105" y1="1110" x2="305" y2="1110"/></g>
<g class="t m"><text x="155" y="202">ScanStrategyMonitoring</text><text x="355" y="262">Evaluate observations</text><text x="325" y="322">Mandatory alert</text><text x="430" y="382">Commit MonitoringAlertRaised</text><text x="430" y="442">RequestEvaluation handler</text><text x="930" y="502">Deliver alert</text><text x="980" y="562">Generate AI Review</text><text x="900" y="622">Query authorized context</text><text x="900" y="682">Evidence references</text><text x="900" y="742">Submit report artifact</text><text x="560" y="802">Request Evaluation</text><text x="520" y="862">Needs Review conditions</text><text x="560" y="922">Execute reopen Decision</text><text x="520" y="982">DecisionExecuted</text><text x="600" y="1042">ReopenResearch</text><text x="650" y="1102">ResearchReopened</text><text x="430" y="1162">Commit event</text></g></svg>
