<svg xmlns="http://www.w3.org/2000/svg" width="1800" height="1050" viewBox="0 0 1800 1050" role="img" aria-labelledby="title desc"><title id="title">Infrastructure ports and adapters</title><desc id="desc">Application and Domain core defines ports implemented by adapters for repositories, events, artifacts, market data, LLM, search, notifications, observability and scheduling.</desc><defs><marker id="a" viewBox="0 0 10 10" refX="9" refY="5" markerWidth="7" markerHeight="7" orient="auto"><path d="M0 0L10 5L0 10z" fill="#64748b"/></marker><style>.t{font-family:Inter,system-ui,sans-serif;fill:#0f172a}.h{font-size:30px;font-weight:700}.l{font-size:16px;font-weight:700}.d{font-size:13px;fill:#475569}.e{fill:none;stroke:#64748b;stroke-width:2.1;marker-end:url(#a)}</style></defs><rect width="1800" height="1050" rx="24" fill="#f8fafc"/><text x="900" y="55" text-anchor="middle" class="t h">Infrastructure Ports &amp; Adapters</text><rect x="570" y="90" width="660" height="120" rx="24" fill="#0f172a"/><text x="900" y="142" text-anchor="middle" class="t h" style="fill:#fff">Application + Domain Core</text><text x="900" y="178" text-anchor="middle" class="t d" style="fill:#cbd5e1">Defines required capabilities inward</text>
<g fill="#ecfeff" stroke="#06b6d4" stroke-width="2"><rect x="55" y="290" width="170" height="70" rx="13"/><rect x="245" y="290" width="170" height="70" rx="13"/><rect x="435" y="290" width="170" height="70" rx="13"/><rect x="625" y="290" width="170" height="70" rx="13"/><rect x="815" y="290" width="170" height="70" rx="13"/><rect x="1005" y="290" width="170" height="70" rx="13"/><rect x="1195" y="290" width="170" height="70" rx="13"/><rect x="1385" y="290" width="170" height="70" rx="13"/><rect x="1575" y="290" width="170" height="70" rx="13"/></g><text x="140" y="332" text-anchor="middle" class="t l">Repository</text><text x="330" y="332" text-anchor="middle" class="t l">Events</text><text x="520" y="321" text-anchor="middle" class="t l">Artifact /</text><text x="520" y="342" text-anchor="middle" class="t l">Document</text><text x="710" y="332" text-anchor="middle" class="t l">Market Data</text><text x="900" y="332" text-anchor="middle" class="t l">LLM</text><text x="1090" y="321" text-anchor="middle" class="t l">Embedding /</text><text x="1090" y="342" text-anchor="middle" class="t l">Search</text><text x="1280" y="332" text-anchor="middle" class="t l">Notification</text><text x="1470" y="332" text-anchor="middle" class="t l">Observability</text><text x="1660" y="321" text-anchor="middle" class="t l">Clock /</text><text x="1660" y="342" text-anchor="middle" class="t l">Scheduling</text>
<path class="e" d="M900 210V250H140V290"/><path class="e" d="M900 250H330V290"/><path class="e" d="M900 250H520V290"/><path class="e" d="M900 250H710V290"/><path class="e" d="M900 210V290"/><path class="e" d="M900 250H1090V290"/><path class="e" d="M900 250H1280V290"/><path class="e" d="M900 250H1470V290"/><path class="e" d="M900 250H1660V290"/>
<g fill="#f5f3ff" stroke="#8b5cf6" stroke-width="2"><rect x="55" y="485" width="170" height="70" rx="13"/><rect x="245" y="485" width="170" height="70" rx="13"/><rect x="435" y="485" width="170" height="70" rx="13"/><rect x="625" y="485" width="170" height="70" rx="13"/><rect x="815" y="485" width="170" height="70" rx="13"/><rect x="1005" y="485" width="170" height="70" rx="13"/><rect x="1195" y="485" width="170" height="70" rx="13"/><rect x="1385" y="485" width="170" height="70" rx="13"/><rect x="1575" y="485" width="170" height="70" rx="13"/></g><text x="140" y="527" text-anchor="middle" class="t l">Repositories</text><text x="330" y="516" text-anchor="middle" class="t l">Outbox +</text><text x="330" y="537" text-anchor="middle" class="t l">Transport</text><text x="520" y="527" text-anchor="middle" class="t l">Object Adapter</text><text x="710" y="516" text-anchor="middle" class="t l">Market Provider</text><text x="900" y="527" text-anchor="middle" class="t l">LLM Provider</text><text x="1090" y="516" text-anchor="middle" class="t l">Embedding +</text><text x="1090" y="537" text-anchor="middle" class="t l">Vector Adapter</text><text x="1280" y="527" text-anchor="middle" class="t l">Email / Notify</text><text x="1470" y="516" text-anchor="middle" class="t l">Logs + Runtime</text><text x="1470" y="537" text-anchor="middle" class="t l">Monitoring</text><text x="1660" y="527" text-anchor="middle" class="t l">Scheduler Engine</text>
<path class="e" d="M140 360V485"/><path class="e" d="M330 360V485"/><path class="e" d="M520 360V485"/><path class="e" d="M710 360V485"/><path class="e" d="M900 360V485"/><path class="e" d="M1090 360V485"/><path class="e" d="M1280 360V485"/><path class="e" d="M1470 360V485"/><path class="e" d="M1660 360V485"/>
<g fill="#ecfdf5" stroke="#10b981" stroke-width="2"><rect x="70" y="700" width="240" height="80" rx="15"/><rect x="360" y="700" width="240" height="80" rx="15"/><rect x="650" y="700" width="240" height="80" rx="15"/><rect x="940" y="700" width="240" height="80" rx="15"/><rect x="1230" y="700" width="240" height="80" rx="15"/><rect x="1520" y="700" width="210" height="80" rx="15"/></g><text x="190" y="748" text-anchor="middle" class="t l">Postgres / Redis</text><text x="480" y="748" text-anchor="middle" class="t l">Object Storage</text><text x="770" y="748" text-anchor="middle" class="t l">Market Sources</text><text x="1060" y="748" text-anchor="middle" class="t l">LLM Providers</text><text x="1350" y="748" text-anchor="middle" class="t l">Vector Database</text><text x="1625" y="748" text-anchor="middle" class="t l">Delivery / Ops</text><path class="e" d="M140 555V700"/><path class="e" d="M520 555V700H480"/><path class="e" d="M710 555V700"/><path class="e" d="M900 555V650H1060V700"/><path class="e" d="M1090 555V650H1350V700"/><path class="e" d="M1280 555V650H1625V700"/><path class="e" d="M1470 555V650H1625V700"/><path class="e" d="M1660 555V700H1625"/><text x="900" y="910" text-anchor="middle" class="t h">Outer technology is replaceable. Inward business meaning is not.</text></svg>
