<svg xmlns="http://www.w3.org/2000/svg" width="1900" height="1640" viewBox="0 0 1900 1640" role="img" aria-labelledby="title desc"><title id="title">New research to monitoring runtime sequence</title><desc id="desc">A user starts Research through Web, Gateway and Application; Research closes, Validation passes, Evaluation approves, Strategy is published, Paper Trading starts, and Scheduler starts Monitoring.</desc><defs><marker id="a" viewBox="0 0 10 10" refX="9" refY="5" markerWidth="7" markerHeight="7" orient="auto"><path d="M0 0L10 5L0 10z" fill="#64748b"/></marker><style>.t{font-family:Inter,system-ui,sans-serif;fill:#0f172a}.h{font-size:30px;font-weight:700}.l{font-size:15px;font-weight:700}.m{font-size:13px;fill:#334155}.life{stroke:#94a3b8;stroke-width:1.5;stroke-dasharray:6 6}.req{stroke:#2563eb;stroke-width:2;marker-end:url(#a)}.ret{stroke:#10b981;stroke-width:2;stroke-dasharray:6 5;marker-end:url(#a)}</style></defs><rect width="1900" height="1640" rx="24" fill="#f8fafc"/><text x="950" y="54" text-anchor="middle" class="t h">Runtime Sequence — New Research to Monitoring</text>
<g fill="#fff" stroke="#64748b" stroke-width="1.5"><rect x="25" y="90" width="150" height="60" rx="10"/><rect x="210" y="90" width="150" height="60" rx="10"/><rect x="395" y="90" width="150" height="60" rx="10"/><rect x="580" y="90" width="150" height="60" rx="10"/><rect x="765" y="90" width="150" height="60" rx="10"/><rect x="950" y="90" width="150" height="60" rx="10"/><rect x="1135" y="90" width="150" height="60" rx="10"/><rect x="1320" y="90" width="150" height="60" rx="10"/><rect x="1505" y="90" width="150" height="60" rx="10"/><rect x="1690" y="90" width="170" height="60" rx="10"/></g><text x="100" y="127" text-anchor="middle" class="t l">User</text><text x="285" y="127" text-anchor="middle" class="t l">Next.js</text><text x="470" y="127" text-anchor="middle" class="t l">FastAPI</text><text x="655" y="127" text-anchor="middle" class="t l">Application</text><text x="840" y="127" text-anchor="middle" class="t l">Research</text><text x="1025" y="127" text-anchor="middle" class="t l">ValidationRun</text><text x="1210" y="127" text-anchor="middle" class="t l">Evaluation</text><text x="1395" y="127" text-anchor="middle" class="t l">Portfolio</text><text x="1580" y="127" text-anchor="middle" class="t l">Outbox</text><text x="1775" y="127" text-anchor="middle" class="t l">Scheduler</text>
<g class="life"><line x1="100" y1="150" x2="100" y2="1570"/><line x1="285" y1="150" x2="285" y2="1570"/><line x1="470" y1="150" x2="470" y2="1570"/><line x1="655" y1="150" x2="655" y2="1570"/><line x1="840" y1="150" x2="840" y2="1570"/><line x1="1025" y1="150" x2="1025" y2="1570"/><line x1="1210" y1="150" x2="1210" y2="1570"/><line x1="1395" y1="150" x2="1395" y2="1570"/><line x1="1580" y1="150" x2="1580" y2="1570"/><line x1="1775" y1="150" x2="1775" y2="1570"/></g>
<g class="req"><line x1="100" y1="210" x2="285" y2="210"/><line x1="285" y1="260" x2="470" y2="260"/><line x1="470" y1="310" x2="655" y2="310"/><line x1="655" y1="360" x2="840" y2="360"/><line x1="655" y1="460" x2="1580" y2="460"/><line x1="1580" y1="520" x2="655" y2="520"/><line x1="655" y1="570" x2="840" y2="570"/><line x1="655" y1="670" x2="1025" y2="670"/><line x1="655" y1="770" x2="1580" y2="770"/><line x1="1580" y1="830" x2="655" y2="830"/><line x1="655" y1="880" x2="1210" y2="880"/><line x1="100" y1="990" x2="285" y2="990"/><line x1="285" y1="1040" x2="470" y2="1040"/><line x1="470" y1="1090" x2="655" y2="1090"/><line x1="655" y1="1140" x2="1210" y2="1140"/><line x1="655" y1="1240" x2="1580" y2="1240"/><line x1="655" y1="1290" x2="1395" y2="1290"/><line x1="655" y1="1390" x2="1580" y2="1390"/><line x1="1580" y1="1440" x2="1775" y2="1440"/><line x1="1775" y1="1490" x2="655" y2="1490"/><line x1="655" y1="1540" x2="1395" y2="1540"/></g>
<g class="ret"><line x1="840" y1="410" x2="655" y2="410"/><line x1="840" y1="620" x2="655" y2="620"/><line x1="1025" y1="720" x2="655" y2="720"/><line x1="1210" y1="930" x2="655" y2="930"/><line x1="1210" y1="1190" x2="655" y2="1190"/><line x1="1395" y1="1340" x2="655" y2="1340"/></g>
<g class="t m"><text x="190" y="202">Start new research</text><text x="365" y="252">Submit intent</text><text x="540" y="302">CreateResearch</text><text x="730" y="352">Create Draft + planning</text><text x="700" y="402">ResearchCreated</text><text x="1040" y="452">Commit aggregate + events</text><text x="1060" y="512">Workflow handler</text><text x="730" y="562">Experiments + synthesis</text><text x="690" y="612">ExperimentCompleted / ResearchClosed</text><text x="820" y="662">RunValidation</text><text x="820" y="712">ValidationPassed</text><text x="1050" y="762">Commit validation event</text><text x="1060" y="822">RequestEvaluation</text><text x="900" y="872">Reviews + Decision</text><text x="850" y="922">EvaluationApproved</text><text x="190" y="982">Authorize publication</text><text x="365" y="1032">Publish approved Strategy</text><text x="540" y="1082">PublishStrategy</text><text x="880" y="1132">Execute Decision</text><text x="830" y="1182">DecisionExecuted / StrategyValidated</text><text x="1060" y="1232">StrategyPublished</text><text x="900" y="1282">StartPaperTrading</text><text x="860" y="1332">Eligibility confirmed</text><text x="1070" y="1382">PaperTradingStarted</text><text x="1610" y="1432">Schedule monitoring</text><text x="1130" y="1482">StartMonitoring</text><text x="850" y="1532">Confirm mandate</text></g></svg>
